<svg width="2166" height="2971" viewBox="0 0 2166 2971" fill="none" xmlns="http://www.w3.org/2000/svg">
<path d="M1082.5 2318C880.5 2318 712 2175 672 1985H0C47.5 2537.5 511 2971 1075.5 2971C1640 2971 2104 2537.5 2151 1985H1493C1453 2175.5 1284.5 2318 1082.5 2318Z" fill="white"/>
<path d="M1322.5 2943C1770.5 2838 2111 2454.5 2151 1985H1886C1859.5 2411 1636 2772 1322.5 2943Z" fill="#DFDFDF"/>
<path d="M1330 1898.5C1329.5 1898.5 1329.5 1898.5 1330 1898.5C1329.5 1868 1324 1839 1314 1812C1279 1718 1188.5 1651.5 1082.5 1651.5C976.5 1651.5 886 1718.5 851 1812C841 1839 835.5 1868 835.5 1898.5H836C836 1929 841.5 1958 851.5 1985C886.5 2079 977 2145.5 1083 2145.5C1189 2145.5 1279.5 2078.5 1314.5 1985C1324.5 1958.5 1330 1929 1330 1898.5Z" fill="white"/>
<path d="M1083 1479.5C1285 1479.5 1453.5 1622.5 1493.5 1812.5H2165.5C2118 1259.5 1654.5 826 1089.5 826C524.5 826 61.5 1259.5 14 1812H672.5C712.5 1622 881 1479.5 1083 1479.5Z" fill="white"/>
<path d="M1886 1812H2165C2124 1334.5 1772 945.5 1312.5 849C1631.5 1017.5 1859 1382 1886 1812Z" fill="white"/>
<path d="M604.994 334.471C598.519 334.281 591.994 335.072 585.725 336.898C488.919 359.685 392.965 386.446 299.313 419.622C229.336 444.124 161.055 474.305 99.2375 514.93C74.1099 531.494 49.7358 549.141 26.8608 568.596C21.4548 573.251 15.5016 578.151 14 585.501C21.308 629.704 64.3037 653.519 101.444 671.994C162.461 699.486 231.232 715.263 298.506 707.815C278.484 691.153 250.653 688.511 229.48 673.76C220.871 667.439 220.674 656.067 218.372 646.805C197.699 650.823 178.075 658.567 157.602 663.222C176.473 651.853 196.998 643.472 216.62 633.475C321.534 589.419 434.956 570.452 547.429 555.359C625.815 546.979 705.854 544.333 781.687 521.154C775.53 504.492 772.426 480.042 750.451 477.444C703.2 453.285 680.58 403.494 653.351 361.448C643.365 344.468 624.42 335.043 604.994 334.471V334.471Z" fill="white"/>
<path d="M1575.6 334.536C1560.59 334.311 1545.6 338.631 1534.86 349.345C1519.7 364.83 1510.88 384.822 1499.27 402.709C1482.65 431.034 1461.19 457.304 1432.75 474.946C1425.45 479.65 1414.33 478.767 1409.98 487.343C1403.47 497.83 1399.31 509.693 1397.06 521.699C1472.99 543.849 1552.58 546.197 1630.72 555.753C1754.65 571.043 1879.99 593.291 1992.92 647.932C2002.48 653.028 2012.24 658.122 2021.8 663.365C2001.23 658.171 1981 651.604 1960.63 645.821C1957.28 655.818 1956.92 668.413 1946.91 674.686C1926.04 688.456 1898.77 691.01 1879.85 707.721C1911.98 711.935 1944.56 708.994 1976.29 703.163C2038.06 691.401 2101.03 668.909 2146.13 624.315L2146.68 624.508C2156.59 611.424 2162 595.988 2164 579.866C2091.72 514.346 2004.33 466.27 1912.68 431.918C1809.52 392.959 1703 363.115 1595.68 337.486C1589.26 335.679 1582.42 334.638 1575.6 334.535V334.536Z" fill="white"/>
<path d="M1089.14 0.00671547C1084.79 -0.152428 1080.46 2.51353 1079.66 8.36959C1061.84 65.8522 1045.98 125.296 1012.34 176.359C1000.23 195.177 982.757 210.122 963.036 220.952C915.383 247.61 862.23 262.361 810.173 278.336C801.964 280.443 795.307 285.688 789.4 291.372C795.407 296.273 801.659 301.271 809.418 303.525C865.379 321.02 923.342 336.312 973.447 367.528C1003.13 385.464 1020.5 416.335 1035.02 446.326H1035.46C1054.03 488.176 1066.7 532.086 1080.31 575.602C1084.17 588.147 1099.54 580.845 1099.79 570.505C1111.2 528.753 1125.61 487.93 1141.48 447.697L1140.38 444.811L1143.83 443.828C1153.24 428.048 1160.65 411.045 1172.47 396.687C1186.93 377.134 1208.36 364.393 1229.68 353.171C1237.44 349.545 1245.3 345.916 1253.16 342.339C1290.45 327.197 1329.04 315.534 1367.58 303.92C1375.19 300.637 1387.85 298.383 1385.65 287.553C1378.64 281.82 1369.94 278.78 1361.43 276.183C1310.77 261.04 1259.36 246.045 1213.31 219.925C1193.54 208.948 1176.52 193.459 1164.61 174.543C1131.97 123.872 1116.01 65.4102 1098.69 8.61367C1097.84 3.14962 1093.48 0.165969 1089.14 0.00671547H1089.14Z" fill="white"/>
</svg>
