<svg width="3518" height="3798" viewBox="0 0 3518 3798" fill="none" xmlns="http://www.w3.org/2000/svg">
<path d="M714.694 1064.59L970.163 323.5H848.756L593.288 1064.59H714.694ZM1092.83 323.5L1348.29 1064.59H1470.17L1214.7 323.5H1092.83ZM1967.36 1107.72V1006H1539.86V1107.72H1967.36ZM2185.18 1064.59L2440.65 323.5H2319.24L2063.78 1064.59H2185.18ZM2563.31 323.5L2818.78 1064.59H2940.66L2685.19 323.5H2563.31ZM161.719 1994.5V2004.81C161.719 2049.19 165 2090.75 171.562 2129.5C178.438 2168.25 187.656 2204.03 199.219 2236.84C210.781 2269.97 224.219 2300.12 239.531 2327.31C255.156 2354.5 271.562 2378.41 288.75 2399.03C305.938 2419.97 323.594 2437.78 341.719 2452.47C360.156 2467.16 377.969 2478.41 395.156 2486.22L420.469 2415.91C408.281 2406.53 395.938 2394.81 383.438 2380.75C370.938 2366.69 359.062 2350.12 347.812 2331.06C337.188 2313.56 327.188 2293.09 317.812 2269.66C308.75 2246.22 300.781 2220.75 293.906 2193.25C288.906 2173.56 284.219 2147.16 279.844 2114.03C275.781 2080.91 273.75 2044.81 273.75 2005.75V1993.56C273.75 1953.88 275.938 1917.16 280.312 1883.41C284.688 1849.66 290.469 1818.88 297.656 1791.06C305.781 1762.31 315.156 1735.75 325.781 1711.38C336.719 1687 348.438 1665.91 360.938 1648.09C370.625 1634.34 380.469 1622.16 390.469 1611.53C400.469 1600.91 410.469 1591.84 420.469 1584.34L395.156 1513.09C377.969 1520.91 360.156 1532.16 341.719 1546.84C323.594 1561.22 305.938 1578.88 288.75 1599.81C271.562 1620.75 255.156 1644.81 239.531 1672C224.219 1699.19 210.781 1729.19 199.219 1762C187.656 1795.12 178.438 1831.22 171.562 1870.28C165 1909.03 161.719 1950.44 161.719 1994.5ZM1028.61 2013.72V2023.56C1028.61 2060.75 1033.92 2095.12 1044.54 2126.69C1055.17 2157.94 1070.79 2185.12 1091.42 2208.25C1111.73 2231.38 1136.73 2249.5 1166.42 2262.62C1196.42 2275.44 1230.48 2281.84 1268.61 2281.84C1306.42 2281.84 1340.17 2275.44 1369.86 2262.62C1399.54 2249.5 1424.54 2231.38 1444.86 2208.25C1465.17 2185.12 1480.64 2157.94 1491.26 2126.69C1501.89 2095.12 1507.2 2060.75 1507.2 2023.56V2013.72C1507.2 1976.84 1501.89 1942.78 1491.26 1911.53C1480.64 1879.97 1465.17 1852.62 1444.86 1829.5C1424.23 1806.38 1399.08 1788.25 1369.39 1775.12C1339.7 1762 1305.79 1755.44 1267.67 1755.44C1229.54 1755.44 1195.64 1762 1165.95 1775.12C1136.58 1788.25 1111.73 1806.38 1091.42 1829.5C1070.79 1852.62 1055.17 1879.97 1044.54 1911.53C1033.92 1942.78 1028.61 1976.84 1028.61 2013.72ZM1158.92 2023.56V2013.72C1158.92 1993.09 1160.95 1973.56 1165.01 1955.12C1169.08 1936.69 1175.48 1920.44 1184.23 1906.38C1192.98 1892.31 1204.23 1881.22 1217.98 1873.09C1231.73 1864.97 1248.29 1860.91 1267.67 1860.91C1287.36 1860.91 1304.08 1864.97 1317.83 1873.09C1331.58 1881.22 1342.83 1892.31 1351.58 1906.38C1360.01 1920.44 1366.26 1936.69 1370.33 1955.12C1374.39 1973.56 1376.42 1993.09 1376.42 2013.72V2023.56C1376.42 2044.81 1374.39 2064.81 1370.33 2083.56C1366.26 2102 1360.01 2118.09 1351.58 2131.84C1342.83 2145.91 1331.58 2157 1317.83 2165.12C1304.08 2173.25 1287.67 2177.31 1268.61 2177.31C1248.92 2177.31 1232.04 2173.25 1217.98 2165.12C1204.23 2157 1192.98 2145.91 1184.23 2131.84C1175.48 2118.09 1169.08 2102 1165.01 2083.56C1160.95 2064.81 1158.92 2044.81 1158.92 2023.56ZM1668.3 2196.53C1668.3 2220.59 1676.43 2240.75 1692.68 2257C1708.93 2273.25 1730.96 2281.38 1758.77 2281.38C1786.27 2281.38 1808.14 2273.41 1824.39 2257.47C1840.96 2241.22 1849.24 2220.91 1849.24 2196.53C1849.24 2172.16 1841.11 2151.69 1824.86 2135.12C1808.93 2118.56 1786.89 2110.28 1758.77 2110.28C1730.33 2110.28 1708.14 2118.72 1692.21 2135.59C1676.27 2152.16 1668.3 2172.47 1668.3 2196.53ZM2008.93 2013.72V2023.56C2008.93 2060.75 2014.24 2095.12 2024.87 2126.69C2035.49 2157.94 2051.12 2185.12 2071.74 2208.25C2092.06 2231.38 2117.06 2249.5 2146.74 2262.62C2176.74 2275.44 2210.81 2281.84 2248.93 2281.84C2286.74 2281.84 2320.49 2275.44 2350.18 2262.62C2379.87 2249.5 2404.87 2231.38 2425.18 2208.25C2445.49 2185.12 2460.96 2157.94 2471.59 2126.69C2482.21 2095.12 2487.53 2060.75 2487.53 2023.56V2013.72C2487.53 1976.84 2482.21 1942.78 2471.59 1911.53C2460.96 1879.97 2445.49 1852.62 2425.18 1829.5C2404.56 1806.38 2379.4 1788.25 2349.71 1775.12C2320.03 1762 2286.12 1755.44 2247.99 1755.44C2209.87 1755.44 2175.96 1762 2146.28 1775.12C2116.9 1788.25 2092.06 1806.38 2071.74 1829.5C2051.12 1852.62 2035.49 1879.97 2024.87 1911.53C2014.24 1942.78 2008.93 1976.84 2008.93 2013.72ZM2139.24 2023.56V2013.72C2139.24 1993.09 2141.28 1973.56 2145.34 1955.12C2149.4 1936.69 2155.81 1920.44 2164.56 1906.38C2173.31 1892.31 2184.56 1881.22 2198.31 1873.09C2212.06 1864.97 2228.62 1860.91 2247.99 1860.91C2267.68 1860.91 2284.4 1864.97 2298.15 1873.09C2311.9 1881.22 2323.15 1892.31 2331.9 1906.38C2340.34 1920.44 2346.59 1936.69 2350.65 1955.12C2354.71 1973.56 2356.74 1993.09 2356.74 2013.72V2023.56C2356.74 2044.81 2354.71 2064.81 2350.65 2083.56C2346.59 2102 2340.34 2118.09 2331.9 2131.84C2323.15 2145.91 2311.9 2157 2298.15 2165.12C2284.4 2173.25 2267.99 2177.31 2248.93 2177.31C2229.24 2177.31 2212.37 2173.25 2198.31 2165.12C2184.56 2157 2173.31 2145.91 2164.56 2131.84C2155.81 2118.09 2149.4 2102 2145.34 2083.56C2141.28 2064.81 2139.24 2044.81 2139.24 2023.56ZM3353.94 2004.81V1994.5C3353.94 1951.69 3350.51 1911.22 3343.63 1873.09C3336.76 1834.66 3327.38 1798.88 3315.51 1765.75C3303.63 1732.62 3289.73 1702.47 3273.79 1675.28C3258.16 1647.78 3241.44 1623.25 3223.63 1601.69C3205.82 1580.44 3187.54 1562.31 3168.79 1547.31C3150.04 1532.31 3131.76 1520.91 3113.94 1513.09L3089.1 1582.94C3098.48 1590.12 3107.85 1598.88 3117.23 1609.19C3126.91 1619.19 3136.29 1630.59 3145.35 1643.41C3158.79 1662.78 3171.44 1685.75 3183.32 1712.31C3195.51 1738.88 3205.82 1768.88 3214.26 1802.31C3220.82 1829.19 3225.98 1858.56 3229.73 1890.44C3233.79 1922.31 3235.82 1956.69 3235.82 1993.56V2005.75C3235.82 2043.56 3233.79 2078.72 3229.73 2111.22C3225.98 2143.72 3220.82 2173.41 3214.26 2200.28C3206.44 2229.66 3197.38 2256.22 3187.07 2279.97C3177.07 2303.72 3165.98 2324.97 3153.79 2343.72C3143.48 2359.66 3132.85 2373.56 3121.91 2385.44C3110.98 2397.62 3100.04 2407.78 3089.1 2415.91L3113.94 2486.22C3131.76 2478.41 3150.04 2467 3168.79 2452C3187.54 2437 3205.82 2418.72 3223.63 2397.16C3241.44 2375.91 3258.16 2351.53 3273.79 2324.03C3289.73 2296.84 3303.63 2266.69 3315.51 2233.56C3327.38 2200.44 3336.76 2164.81 3343.63 2126.69C3350.51 2088.25 3353.94 2047.62 3353.94 2004.81ZM565.631 3470.97L987.506 3298.94V3192.53L565.631 3020.97V3147.06L834.694 3235.66L862.819 3245.03L834.225 3254.41L565.631 3344.41V3470.97ZM1570.33 3215.97H1675.33L1756.43 3003.16L1766.27 2963.78L1776.11 3003.16L1858.61 3215.97H1963.14L1814.08 2855.5H1719.86L1570.33 3215.97ZM2938.78 3470.5V3343.47L2681.91 3257.69L2650.03 3246.44L2681.91 3234.72L2938.78 3147.53V3020.97L2523.94 3193V3298.47L2938.78 3470.5Z" fill="url(#paint0_linear_4_10)"/>
<defs>
<linearGradient id="paint0_linear_4_10" x1="1759" y1="0" x2="1759" y2="3798" gradientUnits="userSpaceOnUse">
<stop stop-color="#C084FC"/>
<stop offset="1" stop-color="#A78BFA"/>
</linearGradient>
</defs>
</svg>
