<svg width="9009" height="1978" viewBox="0 0 9009 1978" fill="none" xmlns="http://www.w3.org/2000/svg">
<path d="M465.088 1476.79C422.607 1476.79 386.963 1468.48 358.154 1451.88C329.834 1434.79 307.129 1412.58 290.039 1385.23C272.461 1358.38 259.766 1328.1 251.953 1294.41C244.629 1260.23 240.967 1225.81 240.967 1191.14V1160.38C240.967 1126.2 244.629 1092.26 251.953 1058.57C259.766 1024.88 272.461 994.363 290.039 967.02C307.617 940.164 330.566 918.436 358.887 901.834C387.695 884.744 423.096 876.199 465.088 876.199C492.432 876.199 517.822 880.838 541.26 890.115C565.186 899.393 585.693 912.088 602.783 928.201C619.873 944.314 633.301 963.113 643.066 984.598C653.32 1005.59 658.691 1028.05 659.18 1051.98H787.354C787.354 1011.94 779.297 974.344 763.184 939.188C747.07 904.031 724.854 873.514 696.533 847.635C667.725 822.244 633.545 802.225 593.994 787.576C554.932 772.439 511.963 764.871 465.088 764.871C405.029 764.871 352.539 775.613 307.617 797.098C262.695 818.582 225.342 847.391 195.557 883.523C165.283 920.145 142.578 962.381 127.441 1010.23C112.305 1058.08 104.736 1108.13 104.736 1160.38V1191.14C104.736 1243.88 112.305 1294.17 127.441 1342.02C142.578 1389.38 165.283 1431.13 195.557 1467.26C225.342 1503.88 262.695 1532.94 307.617 1554.42C352.539 1575.91 405.029 1586.65 465.088 1586.65C507.08 1586.65 547.363 1579.57 585.938 1565.41C624.512 1550.76 658.691 1531.23 688.477 1506.81C718.262 1482.89 741.943 1455.06 759.521 1423.32C777.588 1391.09 786.865 1357.4 787.354 1322.24H659.18C658.691 1344.22 652.832 1364.72 641.602 1383.77C630.859 1402.32 616.455 1418.44 598.389 1432.11C580.322 1446.27 559.57 1457.25 536.133 1465.07C513.184 1472.88 489.502 1476.79 465.088 1476.79ZM1549.07 1572H1690.43V1560.28C1681.64 1538.31 1674.8 1512.67 1669.92 1483.38C1665.04 1453.59 1662.6 1425.52 1662.6 1399.15V1030.74C1662.6 986.307 1654.54 947.488 1638.43 914.285C1622.31 881.082 1600.34 853.25 1572.51 830.789C1544.19 808.816 1510.74 792.459 1472.17 781.717C1433.59 770.486 1391.85 764.871 1346.92 764.871C1297.61 764.871 1253.42 771.707 1214.36 785.379C1175.78 799.051 1143.07 816.873 1116.21 838.846C1088.87 861.307 1067.87 886.453 1053.22 914.285C1039.06 942.117 1031.74 970.438 1031.25 999.246H1167.48C1167.48 982.645 1171.39 966.775 1179.2 951.639C1187.5 936.014 1198.97 922.586 1213.62 911.355C1228.27 900.125 1246.09 891.092 1267.09 884.256C1288.57 877.42 1312.74 874.002 1339.6 874.002C1368.41 874.002 1394.29 877.664 1417.24 884.988C1440.67 892.312 1460.45 902.566 1476.56 915.75C1492.68 929.422 1505.13 945.779 1513.92 964.822C1522.71 983.865 1527.1 1005.35 1527.1 1029.28V1091.53H1379.15C1323.97 1091.53 1273.93 1096.9 1229 1107.64C1184.57 1118.39 1146.48 1134.5 1114.75 1155.98C1083.01 1177.96 1058.35 1205.3 1040.77 1238.02C1023.68 1270.73 1015.14 1308.82 1015.14 1352.27C1015.14 1385.48 1021.48 1416.48 1034.18 1445.29C1047.36 1473.61 1065.92 1498.03 1089.84 1518.53C1113.28 1539.53 1141.85 1556.13 1175.54 1568.34C1209.72 1580.54 1247.8 1586.65 1289.79 1586.65C1315.67 1586.65 1340.09 1583.96 1363.04 1578.59C1385.99 1573.22 1407.71 1565.9 1428.22 1556.62C1448.24 1547.34 1466.55 1536.6 1483.15 1524.39C1500.24 1512.19 1515.62 1499.25 1529.3 1485.57C1530.76 1502.18 1532.96 1518.29 1535.89 1533.91C1539.31 1549.05 1543.7 1561.75 1549.07 1572ZM1309.57 1468.73C1283.2 1468.73 1260.01 1465.31 1239.99 1458.47C1219.97 1451.64 1203.37 1442.12 1190.19 1429.91C1177 1418.19 1166.99 1404.03 1160.16 1387.43C1153.81 1370.83 1150.63 1352.76 1150.63 1333.23C1150.63 1312.72 1154.3 1294.41 1161.62 1278.3C1169.43 1262.19 1180.66 1248.27 1195.31 1236.55C1215.82 1219.95 1243.41 1207.74 1278.08 1199.93C1313.23 1191.63 1354.25 1187.48 1401.12 1187.48H1527.1V1347.88C1519.29 1363.5 1508.54 1378.64 1494.87 1393.29C1481.2 1407.45 1465.09 1420.14 1446.53 1431.38C1427.49 1442.61 1406.49 1451.64 1383.54 1458.47C1360.6 1465.31 1335.94 1468.73 1309.57 1468.73ZM2250 587.625H2113.77V779.52H1905.76V884.256H2113.77V1314.92C2113.77 1363.75 2120.12 1405.5 2132.81 1440.16C2146 1474.34 2163.82 1502.18 2186.28 1523.66C2208.74 1545.63 2235.11 1561.75 2265.38 1572C2296.14 1581.77 2329.1 1586.65 2364.26 1586.65C2385.25 1586.65 2406.25 1585.67 2427.25 1583.72C2448.73 1581.77 2468.99 1578.84 2488.04 1574.93C2507.08 1571.51 2524.66 1567.36 2540.77 1562.48C2556.88 1557.11 2570.56 1551 2581.79 1544.17L2562.74 1448.22C2554.44 1450.17 2543.7 1452.62 2530.52 1455.54C2517.82 1457.99 2504.15 1460.43 2489.5 1462.87C2474.37 1465.31 2458.98 1467.51 2443.36 1469.46C2427.73 1470.93 2412.6 1471.66 2397.95 1471.66C2377.93 1471.66 2358.89 1469.22 2340.82 1464.33C2323.24 1459.45 2307.62 1450.91 2293.95 1438.7C2280.27 1426.98 2269.53 1411.11 2261.72 1391.09C2253.91 1371.07 2250 1345.68 2250 1314.92V884.256H2551.76V779.52H2250V587.625ZM3150.88 587.625H3014.65V779.52H2806.64V884.256H3014.65V1314.92C3014.65 1363.75 3021 1405.5 3033.69 1440.16C3046.88 1474.34 3064.7 1502.18 3087.16 1523.66C3109.62 1545.63 3135.99 1561.75 3166.26 1572C3197.02 1581.77 3229.98 1586.65 3265.14 1586.65C3286.13 1586.65 3307.13 1585.67 3328.12 1583.72C3349.61 1581.77 3369.87 1578.84 3388.92 1574.93C3407.96 1571.51 3425.54 1567.36 3441.65 1562.48C3457.76 1557.11 3471.44 1551 3482.67 1544.17L3463.62 1448.22C3455.32 1450.17 3444.58 1452.62 3431.4 1455.54C3418.7 1457.99 3405.03 1460.43 3390.38 1462.87C3375.24 1465.31 3359.86 1467.51 3344.24 1469.46C3328.61 1470.93 3313.48 1471.66 3298.83 1471.66C3278.81 1471.66 3259.77 1469.22 3241.7 1464.33C3224.12 1459.45 3208.5 1450.91 3194.82 1438.7C3181.15 1426.98 3170.41 1411.11 3162.6 1391.09C3154.79 1371.07 3150.88 1345.68 3150.88 1314.92V884.256H3452.64V779.52H3150.88V587.625ZM3692.87 1168.44V1184.55C3692.87 1241.68 3701.17 1294.66 3717.77 1343.48C3734.38 1392.31 3758.3 1434.79 3789.55 1470.93C3820.31 1507.06 3857.91 1535.38 3902.34 1555.89C3947.27 1576.39 3997.8 1586.65 4053.96 1586.65C4109.62 1586.65 4159.67 1576.39 4204.1 1555.89C4248.54 1535.38 4286.38 1507.06 4317.63 1470.93C4348.39 1434.79 4372.07 1392.31 4388.67 1343.48C4405.27 1294.66 4413.57 1241.68 4413.57 1184.55V1168.44C4413.57 1111.31 4405.27 1058.33 4388.67 1009.5C4372.07 960.184 4348.39 917.459 4317.63 881.326C4286.38 845.193 4248.29 816.873 4203.37 796.365C4158.94 775.369 4108.64 764.871 4052.49 764.871C3996.83 764.871 3946.78 775.369 3902.34 796.365C3857.91 816.873 3820.31 845.193 3789.55 881.326C3758.3 917.459 3734.38 960.184 3717.77 1009.5C3701.17 1058.33 3692.87 1111.31 3692.87 1168.44ZM3828.37 1184.55V1168.44C3828.37 1129.86 3833.01 1093 3842.29 1057.84C3851.56 1022.2 3865.72 990.945 3884.77 964.09C3903.32 937.234 3926.51 915.994 3954.35 900.369C3982.18 884.256 4014.89 876.199 4052.49 876.199C4090.09 876.199 4122.8 884.256 4150.63 900.369C4178.96 915.994 4202.64 937.234 4221.68 964.09C4240.23 990.945 4254.15 1022.2 4263.43 1057.84C4273.19 1093 4278.08 1129.86 4278.08 1168.44V1184.55C4278.08 1223.61 4273.44 1260.96 4264.16 1296.61C4254.88 1331.77 4240.97 1362.77 4222.41 1389.63C4203.37 1416.48 4179.69 1437.72 4151.37 1453.35C4123.54 1468.97 4091.06 1476.79 4053.96 1476.79C4016.36 1476.79 3983.4 1468.97 3955.08 1453.35C3926.76 1437.72 3903.32 1416.48 3884.77 1389.63C3865.72 1362.77 3851.56 1331.77 3842.29 1296.61C3833.01 1260.96 3828.37 1223.61 3828.37 1184.55ZM4867.68 1484.11C4867.68 1512.43 4876.46 1536.6 4894.04 1556.62C4912.11 1576.15 4938.72 1585.92 4973.88 1585.92C5008.54 1585.92 5035.16 1576.15 5053.71 1556.62C5072.27 1537.09 5081.54 1512.92 5081.54 1484.11C5081.54 1454.81 5072.27 1430.15 5053.71 1410.13C5035.64 1389.63 5009.03 1379.37 4973.88 1379.37C4938.23 1379.37 4911.62 1389.63 4894.04 1410.13C4876.46 1430.64 4867.68 1455.3 4867.68 1484.11ZM5553.96 447V564.92H5823.49V1454.81H5553.96V1572H6217.53V1454.81H5958.98V447H5553.96ZM6954.35 1572H7095.7V1560.28C7086.91 1538.31 7080.08 1512.67 7075.2 1483.38C7070.31 1453.59 7067.87 1425.52 7067.87 1399.15V1030.74C7067.87 986.307 7059.81 947.488 7043.7 914.285C7027.59 881.082 7005.62 853.25 6977.78 830.789C6949.46 808.816 6916.02 792.459 6877.44 781.717C6838.87 770.486 6797.12 764.871 6752.2 764.871C6702.88 764.871 6658.69 771.707 6619.63 785.379C6581.05 799.051 6548.34 816.873 6521.48 838.846C6494.14 861.307 6473.14 886.453 6458.5 914.285C6444.34 942.117 6437.01 970.438 6436.52 999.246H6572.75C6572.75 982.645 6576.66 966.775 6584.47 951.639C6592.77 936.014 6604.25 922.586 6618.9 911.355C6633.54 900.125 6651.37 891.092 6672.36 884.256C6693.85 877.42 6718.02 874.002 6744.87 874.002C6773.68 874.002 6799.56 877.664 6822.51 884.988C6845.95 892.312 6865.72 902.566 6881.84 915.75C6897.95 929.422 6910.4 945.779 6919.19 964.822C6927.98 983.865 6932.37 1005.35 6932.37 1029.28V1091.53H6784.42C6729.25 1091.53 6679.2 1096.9 6634.28 1107.64C6589.84 1118.39 6551.76 1134.5 6520.02 1155.98C6488.28 1177.96 6463.62 1205.3 6446.04 1238.02C6428.96 1270.73 6420.41 1308.82 6420.41 1352.27C6420.41 1385.48 6426.76 1416.48 6439.45 1445.29C6452.64 1473.61 6471.19 1498.03 6495.12 1518.53C6518.55 1539.53 6547.12 1556.13 6580.81 1568.34C6614.99 1580.54 6653.08 1586.65 6695.07 1586.65C6720.95 1586.65 6745.36 1583.96 6768.31 1578.59C6791.26 1573.22 6812.99 1565.9 6833.5 1556.62C6853.52 1547.34 6871.83 1536.6 6888.43 1524.39C6905.52 1512.19 6920.9 1499.25 6934.57 1485.57C6936.04 1502.18 6938.23 1518.29 6941.16 1533.91C6944.58 1549.05 6948.97 1561.75 6954.35 1572ZM6714.84 1468.73C6688.48 1468.73 6665.28 1465.31 6645.26 1458.47C6625.24 1451.64 6608.64 1442.12 6595.46 1429.91C6582.28 1418.19 6572.27 1404.03 6565.43 1387.43C6559.08 1370.83 6555.91 1352.76 6555.91 1333.23C6555.91 1312.72 6559.57 1294.41 6566.89 1278.3C6574.71 1262.19 6585.94 1248.27 6600.59 1236.55C6621.09 1219.95 6648.68 1207.74 6683.35 1199.93C6718.51 1191.63 6759.52 1187.48 6806.4 1187.48H6932.37V1347.88C6924.56 1363.5 6913.82 1378.64 6900.15 1393.29C6886.47 1407.45 6870.36 1420.14 6851.81 1431.38C6832.76 1442.61 6811.77 1451.64 6788.82 1458.47C6765.87 1465.31 6741.21 1468.73 6714.84 1468.73ZM8006.1 1184.55V1169.17C8006.1 1127.66 8002.69 1088.36 7995.85 1051.25C7989.01 1013.65 7979 979.471 7965.82 948.709C7953.12 921.365 7938.48 896.707 7921.88 874.734C7905.27 852.273 7886.47 833.23 7865.48 817.605C7842.04 801.004 7815.92 788.064 7787.11 778.787C7758.3 769.51 7726.81 764.871 7692.63 764.871C7665.28 764.871 7639.89 767.557 7616.46 772.928C7593.02 778.299 7571.53 786.111 7552 796.365C7536.38 804.666 7521.73 814.676 7508.06 826.395C7494.38 837.625 7481.93 850.32 7470.7 864.48V447H7335.21V1572H7459.72L7466.31 1481.91C7475.1 1493.14 7484.38 1503.4 7494.14 1512.67C7503.91 1521.95 7514.16 1530.5 7524.9 1538.31C7547.36 1553.93 7572.51 1565.9 7600.34 1574.2C7628.66 1582.5 7659.91 1586.65 7694.09 1586.65C7723.88 1586.65 7751.46 1582.99 7776.86 1575.66C7802.73 1568.34 7826.42 1558.08 7847.9 1544.9C7877.69 1525.86 7903.08 1501.93 7924.07 1473.12C7945.56 1443.83 7962.89 1410.87 7976.07 1374.25C7985.84 1346.41 7993.16 1316.63 7998.05 1284.89C8003.42 1252.66 8006.1 1219.22 8006.1 1184.55ZM7870.61 1169.17V1184.55C7870.61 1207.99 7869.14 1230.94 7866.21 1253.4C7863.28 1275.86 7858.64 1296.85 7852.29 1316.38C7844.48 1342.26 7833.98 1365.7 7820.8 1386.7C7807.62 1407.69 7791.26 1425.03 7771.73 1438.7C7757.08 1449.44 7740.48 1457.74 7721.92 1463.6C7703.37 1468.97 7682.86 1471.66 7660.4 1471.66C7636.96 1471.66 7615.48 1468.73 7595.95 1462.87C7576.42 1456.52 7558.84 1447.73 7543.21 1436.5C7527.59 1425.27 7513.67 1412.33 7501.46 1397.68C7489.75 1382.55 7479.49 1366.19 7470.7 1348.61V1002.18C7479 984.598 7489.01 968.484 7500.73 953.836C7512.94 938.699 7526.86 925.516 7542.48 914.285C7557.62 903.543 7574.95 895.242 7594.48 889.383C7614.01 883.035 7635.5 879.861 7658.94 879.861C7680.42 879.861 7699.95 882.303 7717.53 887.186C7735.11 892.068 7750.98 898.904 7765.14 907.693C7785.64 919.9 7802.98 936.746 7817.14 958.23C7831.3 979.715 7842.77 1003.4 7851.56 1029.28C7857.91 1050.27 7862.55 1072.73 7865.48 1096.66C7868.9 1120.1 7870.61 1144.27 7870.61 1169.17ZM8761.96 1361.79C8761.96 1374.49 8759.52 1386.45 8754.64 1397.68C8749.76 1408.91 8742.68 1419.17 8733.4 1428.45C8718.26 1443.58 8697.27 1455.54 8670.41 1464.33C8643.55 1472.63 8612.06 1476.79 8575.93 1476.79C8552.98 1476.79 8529.79 1474.34 8506.35 1469.46C8482.91 1464.58 8461.67 1456.28 8442.63 1444.56C8423.1 1432.84 8406.74 1417.46 8393.55 1398.42C8380.86 1379.37 8373.54 1355.94 8371.58 1328.1H8236.08C8236.08 1361.79 8243.65 1394.27 8258.79 1425.52C8274.41 1456.77 8296.88 1484.11 8326.17 1507.55C8354.98 1531.47 8390.38 1550.76 8432.37 1565.41C8474.37 1579.57 8522.22 1586.65 8575.93 1586.65C8622.8 1586.65 8666.02 1581.03 8705.57 1569.8C8745.12 1558.57 8779.05 1542.7 8807.37 1522.2C8835.69 1501.69 8857.67 1477.03 8873.29 1448.22C8889.4 1419.41 8897.46 1387.43 8897.46 1352.27C8897.46 1319.56 8890.38 1290.75 8876.22 1265.85C8862.55 1240.95 8842.53 1218.97 8816.16 1199.93C8789.79 1181.38 8757.32 1165.51 8718.75 1152.32C8680.18 1138.65 8636.47 1126.69 8587.65 1116.43C8550.54 1109.11 8519.78 1101.54 8495.36 1093.73C8471.44 1085.92 8452.39 1077.13 8438.23 1067.36C8423.58 1057.6 8413.33 1046.61 8407.47 1034.4C8401.61 1022.2 8398.68 1008.28 8398.68 992.654C8398.68 977.518 8402.34 962.869 8409.67 948.709C8416.99 934.549 8427.98 922.098 8442.63 911.355C8456.79 900.613 8474.61 892.068 8496.09 885.721C8518.07 879.373 8543.46 876.199 8572.27 876.199C8600.1 876.199 8625 880.105 8646.97 887.918C8669.43 895.73 8688.48 905.984 8704.1 918.68C8719.73 931.375 8731.93 946.023 8740.72 962.625C8749.51 978.738 8753.91 995.34 8753.91 1012.43H8889.4C8889.4 977.762 8881.84 945.535 8866.7 915.75C8852.05 885.477 8831.05 859.109 8803.71 836.648C8776.37 814.188 8743.16 796.609 8704.1 783.914C8665.04 771.219 8621.09 764.871 8572.27 764.871C8526.86 764.871 8485.11 770.975 8447.02 783.182C8409.42 795.389 8376.95 811.99 8349.61 832.986C8322.27 853.982 8301.03 878.641 8285.89 906.961C8270.75 934.793 8263.18 964.822 8263.18 997.049C8263.18 1029.76 8270.51 1058.57 8285.16 1083.47C8299.8 1107.89 8320.56 1129.13 8347.41 1147.2C8373.78 1165.75 8405.52 1181.62 8442.63 1194.8C8480.22 1207.99 8521.73 1219.22 8567.14 1228.49C8604.25 1235.82 8635.25 1244.12 8660.16 1253.4C8685.06 1262.19 8705.08 1271.95 8720.21 1282.69C8735.35 1293.44 8746.09 1305.4 8752.44 1318.58C8758.79 1331.28 8761.96 1345.68 8761.96 1361.79Z" fill="black"/>
</svg>
